<svg xmlns="http://www.w3.org/2000/svg" viewBox="0 0 1000 1000" fill="#3D3631">
  <!--
    RyanRealAF Vector Silhouette
    Style: Distressed Slab-Serif / Industrial Stamped
    Color: Deep Umber / Iron Oxide
  -->
  <g id="RYAN">
    <path d="M110 30h110v35h-15c-5 0-8 3-8 8v75c0 5 3 8 8 8h15v35H110v-35h15c5 0 8-3 8-8v-32h45c25 0 35-10 35-30s-10-30-35-30h-45v60h-15c-5 0-8 3-8 8v10c0 5 3 8 8 8h15v35H110V30zm95 45c10 0 15 5 15 15s-5 15-15 15h-15V75h15z"/>
    <path d="M315 30h45l45 95 45-95h45v35h-15c-5 0-8 3-8 8v110c0 5 3 8 8 8h15v35h-100v-35h15c5 0 8-3 8-8v-65l-35 75h-10l-35-75v65c0 5 3 8 8 8h15v35h-100v-35h15c5 0 8-3 8-8V73c0-5-3-8-8-8h-15V30z"/>
    <path d="M570 30h120l50 160h-45l-10-35h-70l-10 35h-45l50-160h60l-30 100h20l-20-100z"/>
    <path d="M780 30h45l85 110V73c0-5-3-8-8-8h-15V30h100v35h-15c-5 0-8 3-8 8v150h-45l-85-110v82c0 5 3 8 8 8h15v35H780v-35h15c5 0 8-3 8-8V73c0-5-3-8-8-8h-15V30z"/>
  </g>
  <g id="REAL">
    <path d="M110 260h110v35h-15c-5 0-8 3-8 8v75c0 5 3 8 8 8h15v35H110v-35h15c5 0 8-3 8-8v-32h45l30 40h15c5 0 8-3 8-8v-5l-35-42c20-5 30-15 30-33s-10-33-35-33h-45v66h-15c-5 0-8 3-8 8v10c0 5 3 8 8 8h15v35H110v-230z m95 45c10 0 15 5 15 15s-5 15-15 15h-15V305h15z"/>
    <path d="M340 260h140v80h-40v-45h-60v35h50v35h-50v45h70v45H340v-35h15c5 0 8-3 8-8V303c0-5-3-8-8-8h-15v-35z"/>
    <path d="M540 260h120l50 160h-45l-10-35h-70l-10 35h-45l50-160h60l-30 100h20l-20-100z"/>
    <path d="M760 260h100v35h-15c-5 0-8 3-8 8v110h60v45H760v-35h15c5 0 8-3 8-8V303c0-5-3-8-8-8h-15v-35z"/>
  </g>
  <g id="AF">
    <path d="M150 480h150l120 480H280l-30-120H120l-30 120H0L150 480z m75 280l-55-220-55 220h110z"/>
    <path d="M530 480h180v35h-20c-8 0-12 5-12 12v420h-130V910h20c8 0 12-5 12-12V527h-50v140h40v35h-40v245h-130V910h20c8 0 12-5 12-12V527c0-7-4-12-12-12h-20v-35z"/>
  </g>
  <!-- Distressed "Roughness" Overlays -->
  <path d="M120 50l5 5M850 400l-10 5M400 900l15-5" stroke="#2A2420" stroke-width="2" opacity="0.5"/>
</svg>
